<svg width="30" height="30" viewBox="0 0 30 30" fill="none" xmlns="http://www.w3.org/2000/svg">
<rect width="30" height="30" rx="15" fill="#0FA0A9"/>
<g clip-path="url(#clip0_11_369)">
<path d="M15 6C10.0299 6 6 10.0294 6 15C6 19.9706 10.0299 24 15 24C19.9712 24 24 19.9706 24 15C24 10.0294 19.9712 6 15 6ZM18.3215 12.0028C19.0331 12.0028 19.6106 12.5804 19.6106 13.292C19.6106 14.0036 19.0325 14.5811 18.3215 14.5811C17.6099 14.5811 17.0323 14.0036 17.0323 13.292C17.0323 12.5804 17.6099 12.0028 18.3215 12.0028ZM11.678 12.0028C12.3901 12.0028 12.9672 12.5804 12.9672 13.292C12.9672 14.0036 12.3901 14.5811 11.678 14.5811C10.9664 14.5811 10.3888 14.0036 10.3888 13.292C10.3888 12.5804 10.9669 12.0028 11.678 12.0028ZM19.8561 18.1291C18.7535 19.7299 16.9377 20.6854 15 20.6854C13.0613 20.6854 11.245 19.7299 10.1439 18.1286C9.89693 17.7702 9.98785 17.2793 10.3468 17.0323C10.7058 16.7848 11.1961 16.8762 11.4431 17.2352C12.2503 18.4087 13.5805 19.1087 15.0005 19.1087C16.4206 19.1087 17.7497 18.4087 18.559 17.2352C18.806 16.8773 19.2958 16.7863 19.6553 17.0328C20.0121 17.2798 20.1025 17.7702 19.8561 18.1291Z" fill="white"/>
</g>
<defs>
<clipPath id="clip0_11_369">
<rect width="18" height="18" fill="white" transform="translate(6 6)"/>
</clipPath>
</defs>
</svg>
