<svg width="38" height="38" viewBox="0 0 38 38" fill="none" xmlns="http://www.w3.org/2000/svg">
    <rect width="38" height="38" rx="19" fill="url(#paint0_linear_1_157)"/>
    <g clip-path="url(#clip0_1_157)">
        <path d="M22.2253 20.3497C22.2253 22.1283 20.7784 23.5752 18.9998 23.5752C17.2211 23.5752 15.7748 22.1283 15.7748 20.3497C15.7748 18.5711 17.2211 17.1242 18.9998 17.1242C20.7784 17.1242 22.2253 18.5716 22.2253 20.3497ZM28.9998 15.7696V24.9309C28.9998 26.1522 28.0095 27.1424 26.7882 27.1424H11.2113C9.98997 27.1424 8.99976 26.1522 8.99976 24.9309V15.7696C8.99976 14.5483 9.98997 13.5581 11.2113 13.5581H13.9315V12.7929C13.9315 11.7242 14.7973 10.8578 15.8666 10.8578H22.1329C23.2022 10.8578 24.068 11.7242 24.068 12.7929V13.5575H26.7882C28.0095 13.5581 28.9998 14.5483 28.9998 15.7696ZM23.8839 20.3497C23.8839 17.6566 21.6929 15.4655 18.9998 15.4655C16.3072 15.4655 14.1161 17.6566 14.1161 20.3497C14.1161 23.0428 16.3072 25.2339 18.9998 25.2339C21.6929 25.2339 23.8839 23.0428 23.8839 20.3497Z" fill="white"/>
    </g>
    <defs>
        <linearGradient id="paint0_linear_1_157" x1="38" y1="19" x2="4.10233e-08" y2="19" gradientUnits="userSpaceOnUse">
            <stop stop-color="#FE914C"/>
            <stop offset="1" stop-color="#FFDE59"/>
        </linearGradient>
        <clipPath id="clip0_1_157">
            <rect width="20" height="20" fill="white" transform="translate(8.99988 9)"/>
        </clipPath>
    </defs>
</svg>
