<svg width="16" height="16" viewBox="0 0 16 16" fill="none" xmlns="http://www.w3.org/2000/svg">
    <g clip-path="url(#clip0_1_25)">
        <path d="M1.33334 10.667C1.33334 8.78137 1.33334 7.83857 1.91913 7.25278C2.50492 6.66699 3.44772 6.66699 5.33334 6.66699H10.6667C12.5523 6.66699 13.4951 6.66699 14.0809 7.25278C14.6667 7.83857 14.6667 8.78137 14.6667 10.667C14.6667 12.5526 14.6667 13.4954 14.0809 14.0812C13.4951 14.667 12.5523 14.667 10.6667 14.667H5.33334C3.44772 14.667 2.50492 14.667 1.91913 14.0812C1.33334 13.4954 1.33334 12.5526 1.33334 10.667Z" stroke="url(#paint0_linear_1_25)"/>
        <path d="M4.00002 6.66671V5.33337C4.00002 3.12424 5.79088 1.33337 8.00002 1.33337C10.2092 1.33337 12 3.12424 12 5.33337V6.66671" stroke="url(#paint1_linear_1_25)" stroke-linecap="round"/>
    </g>
    <defs>
        <linearGradient id="paint0_linear_1_25" x1="14.6667" y1="10.667" x2="1.33334" y2="10.667" gradientUnits="userSpaceOnUse">
            <stop stop-color="#FE914C"/>
            <stop offset="1" stop-color="#FFDE59"/>
        </linearGradient>
        <linearGradient id="paint1_linear_1_25" x1="12" y1="4.00004" x2="4.00002" y2="4.00004" gradientUnits="userSpaceOnUse">
            <stop stop-color="#FE914C"/>
            <stop offset="1" stop-color="#FFDE59"/>
        </linearGradient>
        <clipPath id="clip0_1_25">
            <rect width="16" height="16" fill="white"/>
        </clipPath>
    </defs>
</svg>
