<svg width="24" height="24" viewBox="0 0 24 24" fill="none" xmlns="http://www.w3.org/2000/svg">
<rect x="1.00284" y="1.00284" width="21.6171" height="21.6171" rx="10.8086" fill="url(#paint0_linear_11_298)"/>
<rect x="1.00284" y="1.00284" width="21.6171" height="21.6171" rx="10.8086" stroke="url(#paint1_linear_11_298)" stroke-width="1.56"/>
<path d="M11.8537 16.668C10.1317 16.668 8.85772 16.01 8.17172 15.17L9.20772 13.84C9.85172 14.512 10.8737 14.904 11.7837 14.904C12.9177 14.904 13.5477 14.414 13.5477 13.714C13.5477 12.972 12.9737 12.636 11.6717 12.636C11.2797 12.636 10.6497 12.65 10.5097 12.664V10.872C10.6777 10.886 11.3217 10.886 11.6717 10.886C12.7077 10.886 13.3937 10.578 13.3937 9.892C13.3937 9.15 12.6377 8.786 11.6577 8.786C10.7617 8.786 9.94972 9.122 9.29172 9.752L8.29772 8.506C9.05372 7.652 10.2297 7.022 11.8677 7.022C14.0517 7.022 15.3957 8.002 15.3957 9.556C15.3957 10.732 14.3877 11.502 13.3517 11.684C14.3037 11.782 15.5357 12.524 15.5357 13.924C15.5357 15.534 14.0937 16.668 11.8537 16.668Z" fill="white"/>
<defs>
<linearGradient id="paint0_linear_11_298" x1="21.84" y1="11.8114" x2="1.78284" y2="11.8114" gradientUnits="userSpaceOnUse">
<stop stop-color="#FE914C"/>
</linearGradient>
<linearGradient id="paint1_linear_11_298" x1="21.84" y1="11.8114" x2="1.78284" y2="11.8114" gradientUnits="userSpaceOnUse">
<stop stop-color="#FE914C"/>
</linearGradient>
</defs>
</svg>
