<svg width="28" height="14" viewBox="0 0 28 14" fill="none" xmlns="http://www.w3.org/2000/svg">
    <rect y="10.1395" width="6.27907" height="6.27907" rx="3.13953" transform="rotate(-90 0 10.1395)" fill="#262626"/>
    <path d="M3.76746 6.05814C3.24728 6.05814 2.8256 6.47982 2.8256 7C2.8256 7.52018 3.24728 7.94186 3.76746 7.94186L3.76746 6.05814ZM27.666 7.66599C28.0338 7.29817 28.0338 6.70182 27.666 6.334L21.672 0.34004C21.3042 -0.0277802 20.7079 -0.0277801 20.3401 0.34004C19.9722 0.707859 19.9722 1.30421 20.3401 1.67203L25.668 7L20.3401 12.328C19.9722 12.6958 19.9722 13.2921 20.3401 13.66C20.7079 14.0278 21.3042 14.0278 21.672 13.66L27.666 7.66599ZM3.76746 7.94186L27 7.94186L27 6.05814L3.76746 6.05814L3.76746 7.94186Z" fill="#262626"/>
</svg>
